<svg xmlns="http://www.w3.org/2000/svg" xml:space="preserve" version="1.1"
     style="shape-rendering:geometricPrecision; text-rendering:geometricPrecision; image-rendering:optimizeQuality; fill-rule:evenodd; clip-rule:evenodd"
     viewBox="0 0 3387 3387">
  <path style="fill:yellow" d="M1966 847c360,0 651,291 651,651 0,360 -291,651 -651,651 -360,0 -651,-291 -651,-651 0,-360 291,-651 651,-651zm-391 1373c-228,-124 -391,-354 -424,-623 -42,-14 -72,-53 -72,-100 0,-57 47,-104 104,-104 58,0 104,47 104,104 0,46 -29,85 -70,99 30,233 166,432 358,549l0 -61c109,82 245,130 391,130 147,0 282,-48 391,-130l0 261c0,6 -1,13 -2,20 1,7 2,14 2,21l0 0c0,85 -69,154 -154,154l-474 0c-84,0 -154,-69 -154,-154l0 0c0,-7 1,-14 2,-21 -1,-7 -2,-14 -2,-20l0 -125zm391 -852c72,0 130,58 130,130 0,72 -58,130 -130,130 -72,0 -130,-58 -130,-130 0,-72 58,-130 130,-130z"/>
</svg>
