
<svg xmlns="http://www.w3.org/2000/svg" xml:space="preserve" width="33.8666mm" height="33.8666mm" version="1.1"
     style="shape-rendering:geometricPrecision; text-rendering:geometricPrecision; image-rendering:optimizeQuality; fill-rule:evenodd; clip-rule:evenodd"
     viewBox="0 0 3387 3387">
  <path style="fill:yellow" d="M1169 1234c0,5 0,10 0,15l0 449c7,-3 14,-5 22,-5l1058 0c29,0 53,24 53,53l0 0c0,29 -24,53 -53,53l2 0c0,185 -95,347 -238,442l60 193 22 0c30,0 53,24 53,53l0 0c0,26 -18,47 -42,52l0 1 -11 0 -1037 0 -10 0 0 -1c-24,-5 -43,-26 -43,-52l0 0c0,-29 24,-53 53,-53l23 0 92 -295c-32,-75 -107,-128 -194,-128l0 0 0 0 0 0c-105,0 -191,-86 -191,-191l0 -571c0,-5 1,-10 1,-15 0,-2 -1,-4 -1,-6l0 -233c0,-23 20,-42 43,-42l296 0c23,0 42,19 42,42l0 233c0,2 0,4 0,6zm21 565c-7,0 -14,-2 -21,-4l0 4 21 0zm-370 -952l318 0c29,0 53,23 53,53l0 0c0,29 -24,52 -53,52l-318 0c-29,0 -53,-23 -53,-52l0 0c0,-30 24,-53 53,-53z"/>
</svg>
