<svg xmlns="http://www.w3.org/2000/svg" xml:space="preserve" version="1.1"
     style="shape-rendering:geometricPrecision; text-rendering:geometricPrecision; image-rendering:optimizeQuality; fill-rule:evenodd; clip-rule:evenodd"
     viewBox="0 0 3387 3387">
  <path style="fill:yellow" d="M1271 1165l0 0c58,0 105,48 105,106l0 105 64 0 0 -105c0,-58 47,-106 106,-106l0 0c58,0 105,48 105,106l0 105 64 0 0 -105c0,-58 47,-106 105,-106l0 0c59,0 106,48 106,106l0 105 64 0 0 -105c0,-58 47,-106 105,-106l0 0c58,0 106,48 106,106l0 105 63 0 0 -105c0,-58 48,-106 106,-106l0 0c58,0 106,48 106,106l0 105 39 0c12,0 21,10 21,21l0 64c0,12 -9,21 -21,21l-39 0 0 632 45 0c12,0 21,9 21,21l0 63c0,12 -9,21 -21,21l-45 0 0 109c0,58 -48,106 -106,106l0 0c-58,0 -106,-48 -106,-106l0 -109 -63 0 0 109c0,58 -48,106 -106,106l0 0c-58,0 -105,-48 -105,-106l0 -109 -64 0 0 109c0,58 -47,106 -106,106l0 0c-58,0 -105,-48 -105,-106l0 -109 -64 0 0 109c0,58 -47,106 -105,106l0 0c-59,0 -106,-48 -106,-106l0 -109 -64 0 0 109c0,58 -47,106 -105,106l0 0c-58,0 -106,-48 -106,-106l0 -109 -105 0 0 405c0,11 -9,21 -21,21l-63 0c-12,0 -22,-10 -22,-21l0 -486c0,-6 2,-11 6,-14 4,-6 10,-10 18,-10l187 0 0 -632 -295 0c-12,0 -21,-9 -21,-21l0 -64c0,-11 9,-21 21,-21l95 0 -25 -99c-6,-4 -11,-11 -11,-19l0 -13c0,-11 10,-21 21,-21l89 0c12,0 21,10 21,21l0 13c0,8 -4,15 -11,19l-25 99 141 0 0 -105c0,-58 48,-106 106,-106zm993 949l0 -632 -63 0 0 632 63 0zm-274 0l0 -632 -64 0 0 632 64 0zm-275 0l0 -632 -64 0 0 632 64 0zm-275 0l0 -632 -64 0 0 632 64 0z"/>
</svg>
