<svg xmlns="http://www.w3.org/2000/svg" xml:space="preserve" version="1.1"
     style="shape-rendering:geometricPrecision; text-rendering:geometricPrecision; image-rendering:optimizeQuality; fill-rule:evenodd; clip-rule:evenodd"
     viewBox="0 0 3387 3387">
  <path style="fill:yellow" d="M1058 847l1270 0c117,0 212,95 212,211l0 1270c0,117 -95,212 -212,212l-1270 0c-116,0 -211,-95 -211,-212l0 -1270c0,-116 95,-211 211,-211zm53 1480c29,0 53,23 53,53 0,29 -24,53 -53,53 -29,0 -53,-24 -53,-53 0,-30 24,-53 53,-53zm1020 -566c114,7 205,98 212,212l56 0c8,0 14,6 14,14l0 0c0,8 -6,14 -14,14l-56 0c-7,114 -98,205 -212,212l0 56c0,8 -7,14 -14,14l0 0c-8,0 -14,-6 -14,-14l0 -56c-114,-7 -205,-98 -212,-212l-57 0c-7,0 -14,-6 -14,-14l0 0c0,-8 7,-14 14,-14l57 0c7,-114 98,-205 212,-212l0 -56c0,-8 6,-15 14,-15l0 0c7,0 14,7 14,15l0 56zm183 240l-57 0c-7,0 -14,-6 -14,-14l0 0c0,-8 7,-14 14,-14l57 0c-7,-99 -85,-177 -183,-184l0 57c0,8 -7,14 -14,14l0 0c-8,0 -14,-6 -14,-14l0 -57c-99,7 -177,85 -184,184l57 0c8,0 14,6 14,14l0 0c0,8 -6,14 -14,14l-57 0c7,98 85,176 184,183l0 -57c0,-7 6,-14 14,-14l0 0c7,0 14,7 14,14l0 57c98,-7 176,-85 183,-183zm-1030 -240c114,7 205,98 212,212l56 0c8,0 14,6 14,14l0 0c0,8 -6,14 -14,14l-56 0c-7,114 -98,205 -212,212l0 56c0,8 -6,14 -14,14l0 0c-8,0 -14,-6 -14,-14l0 -56c-114,-7 -205,-98 -212,-212l-56 0c-8,0 -14,-6 -14,-14l0 0c0,-8 6,-14 14,-14l56 0c7,-114 98,-205 212,-212l0 -56c0,-8 6,-15 14,-15l0 0c8,0 14,7 14,15l0 56zm184 240l-57 0c-8,0 -14,-6 -14,-14l0 0c0,-8 6,-14 14,-14l57 0c-7,-99 -86,-177 -184,-184l0 57c0,8 -6,14 -14,14l0 0c-8,0 -14,-6 -14,-14l0 -57c-98,7 -177,85 -184,184l57 0c8,0 14,6 14,14l0 0c0,8 -6,14 -14,14l-57 0c7,98 86,176 184,183l0 -57c0,-7 6,-14 14,-14l0 0c8,0 14,7 14,14l0 57c98,-7 177,-85 184,-183zm663 -957c114,7 205,98 212,212l56 0c8,0 14,6 14,14l0 0c0,8 -6,14 -14,14l-56 0c-7,114 -98,205 -212,212l0 56c0,8 -7,14 -14,14l0 0c-8,0 -14,-6 -14,-14l0 -56c-114,-7 -205,-98 -212,-212l-57 0c-7,0 -14,-6 -14,-14l0 0c0,-8 7,-14 14,-14l57 0c7,-114 98,-205 212,-212l0 -56c0,-8 6,-14 14,-14l0 0c7,0 14,6 14,14l0 56zm183 240l-57 0c-7,0 -14,-6 -14,-14l0 0c0,-8 7,-14 14,-14l57 0c-7,-98 -85,-177 -183,-184l0 57c0,8 -7,14 -14,14l0 0c-8,0 -14,-6 -14,-14l0 -57c-99,7 -177,86 -184,184l57 0c8,0 14,6 14,14l0 0c0,8 -6,14 -14,14l-57 0c7,98 85,177 184,184l0 -57c0,-8 6,-14 14,-14l0 0c7,0 14,6 14,14l0 57c98,-7 176,-86 183,-184zm-1030 -240c114,7 205,98 212,212l56 0c8,0 14,6 14,14l0 0c0,8 -6,14 -14,14l-56 0c-7,114 -98,205 -212,212l0 56c0,8 -6,14 -14,14l0 0c-8,0 -14,-6 -14,-14l0 -56c-114,-7 -205,-98 -212,-212l-56 0c-8,0 -14,-6 -14,-14l0 0c0,-8 6,-14 14,-14l56 0c7,-114 98,-205 212,-212l0 -56c0,-8 6,-14 14,-14l0 0c8,0 14,6 14,14l0 56zm184 240l-57 0c-8,0 -14,-6 -14,-14l0 0c0,-8 6,-14 14,-14l57 0c-7,-98 -86,-177 -184,-184l0 57c0,8 -6,14 -14,14l0 0c-8,0 -14,-6 -14,-14l0 -57c-98,7 -177,86 -184,184l57 0c8,0 14,6 14,14l0 0c0,8 -6,14 -14,14l-57 0c7,98 86,177 184,184l0 -57c0,-8 6,-14 14,-14l0 0c8,0 14,6 14,14l0 57c98,-7 177,-86 184,-184zm807 1043c30,0 53,23 53,53 0,29 -23,53 -53,53 -29,0 -53,-24 -53,-53 0,-30 24,-53 53,-53zm-781 0c30,0 53,23 53,53 0,29 -23,53 -53,53 -29,0 -53,-24 -53,-53 0,-30 24,-53 53,-53zm398 0c30,0 53,23 53,53 0,29 -23,53 -53,53 -29,0 -53,-24 -53,-53 0,-30 24,-53 53,-53z"/>
</svg>
