<svg xmlns="http://www.w3.org/2000/svg" xml:space="preserve" version="1.1"
     style="shape-rendering:geometricPrecision; text-rendering:geometricPrecision; image-rendering:optimizeQuality; fill-rule:evenodd; clip-rule:evenodd"
     viewBox="0 0 3387 3387">
  <path style="fill:yellow" d="M889 1810l63 0 0 -106c0,-23 20,-42 43,-42l1397 0c23,0 42,19 42,42l0 106 63 0 43 -239 -3 0c2,-4 3,-9 3,-14l0 -341c0,-23 -19,-41 -41,-41l-1611 0c-23,0 -41,18 -41,41l0 341c0,5 1,10 2,14l-2 0 42 239zm138 -106l1333 0c23,0 42,19 42,42l0 43c0,23 -19,42 -42,42l-1333 0c-24,0 -43,-19 -43,-42l0 -43c0,-23 19,-42 43,-42zm490 -212l353 0c19,0 35,16 35,36l0 35c0,19 -16,35 -35,35l-353 0c-19,0 -35,-16 -35,-35l0 -35c0,-20 16,-36 35,-36z"/>
</svg>
