<svg xmlns="http://www.w3.org/2000/svg" xml:space="preserve" version="1.1"
     style="shape-rendering:geometricPrecision; text-rendering:geometricPrecision; image-rendering:optimizeQuality; fill-rule:evenodd; clip-rule:evenodd"
     viewBox="0 0 3387 3387">
  <path class="fil0" d="M1164 847l1482 0 0 1693 -1482 0 0 -1693zm847 846l423 0 0 212 -423 0 0 -212zm0 -635l423 0 0 212 -423 0 0 -212zm0 318l423 0 0 212 -423 0 0 -212zm-635 0l423 0 0 212 -423 0 0 -212zm423 741l212 0 0 423 -212 0 0 -423zm-423 -1059l423 0 0 212 -423 0 0 -212zm0 635l423 0 0 212 -423 0 0 -212z"/>
</svg>
