<?xml version="1.0" encoding="UTF-8"?>
<!DOCTYPE svg PUBLIC "-//W3C//DTD SVG 1.1//EN" "http://www.w3.org/Graphics/SVG/1.1/DTD/svg11.dtd">
<!-- Creator: CorelDRAW X7 -->
<svg xmlns="http://www.w3.org/2000/svg" xml:space="preserve" width="33.8666mm" height="33.8666mm" version="1.1" style="shape-rendering:geometricPrecision; text-rendering:geometricPrecision; image-rendering:optimizeQuality; fill-rule:evenodd; clip-rule:evenodd"
viewBox="0 0 3387 3387"
 xmlns:xlink="http://www.w3.org/1999/xlink">
 <defs>
  <style type="text/css">
   <![CDATA[
    .fil0 {fill:white}
   ]]>
  </style>
 </defs>
 <g id="Warstwa_x0020_1">
  <metadata id="CorelCorpID_0Corel-Layer"/>
  <path class="fil0" d="M1164 847l1482 0 0 1693 -1482 0 0 -1693zm847 846l423 0 0 212 -423 0 0 -212zm0 -635l423 0 0 212 -423 0 0 -212zm0 318l423 0 0 212 -423 0 0 -212zm-635 0l423 0 0 212 -423 0 0 -212zm423 741l212 0 0 423 -212 0 0 -423zm-423 -1059l423 0 0 212 -423 0 0 -212zm0 635l423 0 0 212 -423 0 0 -212z"/>
 </g>
</svg>
