<?xml version="1.0" encoding="UTF-8"?>
<!DOCTYPE svg PUBLIC "-//W3C//DTD SVG 1.1//EN" "http://www.w3.org/Graphics/SVG/1.1/DTD/svg11.dtd">
<!-- Creator: CorelDRAW X7 -->
<svg xmlns="http://www.w3.org/2000/svg" xml:space="preserve" width="33.8666mm" height="33.8666mm" version="1.1" style="shape-rendering:geometricPrecision; text-rendering:geometricPrecision; image-rendering:optimizeQuality; fill-rule:evenodd; clip-rule:evenodd"
viewBox="0 0 3387 3387"
 xmlns:xlink="http://www.w3.org/1999/xlink">
 <defs>
  <style type="text/css">
   <![CDATA[
    .fil0 {fill:white}
   ]]>
  </style>
 </defs>
 <g id="Warstwa_x0020_1">
  <metadata id="CorelCorpID_0Corel-Layer"/>
  <path class="fil0" d="M1058 1270l18 0c44,-123 162,-212 300,-212 52,0 101,13 144,35 67,-145 214,-246 385,-246 234,0 423,189 423,423l0 0c117,0 212,95 212,212l0 0c0,116 -95,211 -212,211l-1270 0c-116,0 -211,-95 -211,-211l0 0c0,-117 95,-212 211,-212zm303 847l211 0 -90 -318 423 0 121 424 -212 0 91 317 -544 -423z"/>
 </g>
</svg>
