<?xml version="1.0" encoding="UTF-8"?>
<!DOCTYPE svg PUBLIC "-//W3C//DTD SVG 1.1//EN" "http://www.w3.org/Graphics/SVG/1.1/DTD/svg11.dtd">
<!-- Creator: CorelDRAW X7 -->
<svg xmlns="http://www.w3.org/2000/svg" xml:space="preserve" width="33.8666mm" height="33.8666mm" version="1.1" style="shape-rendering:geometricPrecision; text-rendering:geometricPrecision; image-rendering:optimizeQuality; fill-rule:evenodd; clip-rule:evenodd"
viewBox="0 0 3387 3387"
 xmlns:xlink="http://www.w3.org/1999/xlink">
 <defs>
  <style type="text/css">
   <![CDATA[
    .fil0 {fill:white}
   ]]>
  </style>
 </defs>
 <g id="Warstwa_x0020_1">
  <metadata id="CorelCorpID_0Corel-Layer"/>
  <path class="fil0" d="M1906 1270l423 0 0 212 -423 0 0 -212zm-847 1270l847 0 0 0 0 -423 423 0 0 423 0 0 0 0 212 0 0 -847 1 0 -1 0 0 -846 -845 0 -1 0 -1 0 0 0 -74 75 1 0 -772 771 150 0 695 -695 0 42 -635 635 0 865zm212 -847l424 0 0 212 -424 0 0 -212zm635 0l423 0 0 212 -423 0 0 -212zm-212 635l0 -211 -423 0 0 211 423 0z"/>
 </g>
</svg>
