<svg class="icon" xmlns="http://www.w3.org/2000/svg" xml:space="preserve" version="1.1"
     style="shape-rendering:geometricPrecision; text-rendering:geometricPrecision; image-rendering:optimizeQuality; fill-rule:evenodd; clip-rule:evenodd"
     viewBox="0 0 3387 3387">
  <path style="fill:yellow" d="M1257 820l873 0c80,0 145,66 145,146l0 13 138 0c70,0 127,57 127,127l0 63c0,70 -57,127 -127,127l-138 0 0 212 138 0c70,0 127,57 127,127l0 64c0,69 -57,127 -127,127l-138 0 0 13c0,80 -65,145 -145,145l-13 0 0 138c0,70 -57,127 -127,127l-64 0c-70,0 -127,-57 -127,-127l0 -138 -211 0 0 138c0,70 -58,127 -127,127l-64 0c-70,0 -127,-57 -127,-127l0 -138 -13 0c-80,0 -146,-65 -146,-145l0 -13 -136 0c-71,0 -128,-58 -128,-129l0 -64c0,-71 57,-128 128,-128l136 0 0 -210 -138 0c-70,0 -126,-57 -126,-127l0 -63c0,-69 56,-126 126,-126l138 0 0 -13c0,-80 66,-146 146,-146zm436 265c176,0 318,142 318,317 0,176 -142,318 -318,318 -175,0 -317,-142 -317,-318 0,-175 142,-317 317,-317z"/>
</svg>
