<?xml version="1.0" encoding="UTF-8"?>
<!DOCTYPE svg PUBLIC "-//W3C//DTD SVG 1.1//EN" "http://www.w3.org/Graphics/SVG/1.1/DTD/svg11.dtd">
<!-- Creator: CorelDRAW X7 -->
<svg xmlns="http://www.w3.org/2000/svg" xml:space="preserve" width="33.8666mm" height="33.8666mm" version="1.1" style="shape-rendering:geometricPrecision; text-rendering:geometricPrecision; image-rendering:optimizeQuality; fill-rule:evenodd; clip-rule:evenodd"
viewBox="0 0 3387 3387"
 xmlns:xlink="http://www.w3.org/1999/xlink">
 <defs>
  <style type="text/css">
   <![CDATA[
    .fil0 {fill:white}
   ]]>
  </style>
 </defs>
 <g id="Warstwa_x0020_1">
  <metadata id="CorelCorpID_0Corel-Layer"/>
  <path class="fil0" d="M2134 1482l-846 0c4,78 9,50 11,89 2,39 2,39 16,44 13,5 40,15 69,28 29,13 60,29 88,48 27,18 52,38 70,59 19,21 32,43 40,59 8,17 12,29 11,50 0,21 -5,50 -11,79 -7,29 -16,58 -22,92 -6,35 -9,76 -11,111 -2,35 -3,64 -2,89 1,25 5,47 13,74 8,28 20,62 37,95 17,33 38,64 55,86 16,22 29,35 38,43 10,7 15,10 20,12 6,-2 12,-5 21,-12 9,-8 22,-21 39,-43 17,-22 38,-53 54,-86 17,-33 30,-67 38,-95 8,-27 12,-49 13,-74 1,-25 0,-54 -2,-89 -3,-35 -6,-76 -12,-111 -6,-34 -14,-63 -21,-92 -7,-29 -11,-58 -12,-79 0,-21 4,-33 12,-50 8,-16 21,-38 39,-59 19,-21 43,-41 71,-59 28,-19 59,-35 88,-48 29,-13 56,-23 69,-28 13,-5 13,-5 16,-44 2,-39 7,-11 11,-89zm0 -106c9,-66 18,-132 25,-187 7,-55 12,-100 19,-142 8,-42 18,-82 24,-108 5,-27 5,-39 3,-48 -3,-9 -7,-15 -17,-17 -9,-3 -23,-3 -38,-6 -14,-2 -30,-7 -42,-9 -12,-3 -21,-4 -32,-3 -10,0 -22,2 -31,0 -10,-1 -17,-5 -24,-7 -8,-2 -16,-3 -26,-1 -9,2 -19,6 -31,8 -11,2 -22,0 -38,-1 -16,-1 -36,-1 -52,-3 -15,-1 -27,-5 -37,-3 -10,2 -18,9 -26,13 -7,3 -14,3 -24,1 -9,-2 -21,-4 -30,-3 -9,0 -16,3 -24,5 -8,1 -16,1 -28,0 -12,-2 -29,-5 -41,-4 -12,0 -20,5 -28,7 -8,2 -15,1 -24,-1 -9,-2 -21,-6 -32,-6 -11,1 -22,7 -28,8 -6,2 -9,0 -17,-3 -8,-2 -22,-5 -34,-2 -13,2 -23,9 -37,12 -13,2 -29,0 -45,-3 -15,-3 -29,-6 -41,-6 -12,0 -23,3 -33,3 -10,1 -19,-1 -34,0 -14,2 -34,7 -47,14 -12,7 -16,16 -11,98 5,82 20,238 35,394l846 0zm-423 899c29,0 53,24 53,53 0,30 -24,53 -53,53 -29,0 -53,-23 -53,-53 0,-29 24,-53 53,-53z"/>
 </g>
</svg>
