<?xml version="1.0" encoding="UTF-8"?>
<!DOCTYPE svg PUBLIC "-//W3C//DTD SVG 1.1//EN" "http://www.w3.org/Graphics/SVG/1.1/DTD/svg11.dtd">
<!-- Creator: CorelDRAW X7 -->
<svg xmlns="http://www.w3.org/2000/svg" xml:space="preserve" width="33.8666mm" height="33.8666mm" version="1.1" style="shape-rendering:geometricPrecision; text-rendering:geometricPrecision; image-rendering:optimizeQuality; fill-rule:evenodd; clip-rule:evenodd"
viewBox="0 0 3387 3387"
 xmlns:xlink="http://www.w3.org/1999/xlink">
 <defs>
  <style type="text/css">
   <![CDATA[
    .fil0 {fill:white}
   ]]>
  </style>
 </defs>
 <g id="Warstwa_x0020_1">
  <metadata id="CorelCorpID_0Corel-Layer"/>
  <path class="fil0" d="M1906 1867l0 705 -424 0 0 -705c53,58 128,94 212,94 84,0 159,-36 212,-94zm423 387l1 0c29,0 52,24 52,53l0 0c0,29 -23,53 -52,53l-1 0 0 106c0,58 -48,106 -106,106l0 0c-58,0 -106,-48 -106,-106l0 -106c-29,0 -52,-24 -52,-53l0 0c0,-29 23,-52 52,-53l0 -846c-29,-1 -52,-24 -52,-53l0 0c0,-29 23,-53 52,-53l0 -80c29,24 66,37 106,37 40,0 77,-14 106,-37l0 80 1 0c29,0 52,24 52,53l0 0c0,29 -23,53 -52,53l-1 0 0 846zm-1058 0l0 0c29,0 53,24 53,53l0 0c0,29 -24,53 -53,53l0 0 0 106c0,58 -48,106 -106,106l0 0c-58,0 -106,-48 -106,-106l0 -106c-29,0 -52,-24 -52,-53l0 0c0,-29 23,-52 52,-53l0 -846c-29,-1 -52,-24 -52,-53l0 0c0,-29 23,-53 52,-53l0 -80c29,24 66,37 106,37 40,0 77,-14 106,-37l0 80 0 0c29,0 53,24 53,53l0 0c0,29 -24,53 -53,53l0 0 0 846zm952 -1312c82,0 148,66 148,148 0,82 -66,148 -148,148 -82,0 -148,-66 -148,-148 0,-82 66,-148 148,-148zm-1058 42c58,0 106,48 106,106 0,59 -48,106 -106,106 -59,0 -106,-47 -106,-106 0,-58 47,-106 106,-106zm529 479c117,0 212,95 212,212 0,117 -95,212 -212,212 -117,0 -212,-95 -212,-212 0,-117 95,-212 212,-212zm529 -479c59,0 106,48 106,106 0,59 -47,106 -106,106 -58,0 -106,-47 -106,-106 0,-58 48,-106 106,-106zm-1058 -42c82,0 148,66 148,148 0,82 -66,148 -148,148 -82,0 -148,-66 -148,-148 0,-82 66,-148 148,-148zm529 479c140,0 254,114 254,254 0,140 -114,254 -254,254 -140,0 -254,-114 -254,-254 0,-140 114,-254 254,-254z"/>
 </g>
</svg>
